<svg id="Layer_1" data-name="Layer 1" xmlns="http://www.w3.org/2000/svg" xmlns:xlink="http://www.w3.org/1999/xlink" viewBox="0 0 632.37289 266.18707">
  <defs>
    <style>
      .cls-1, .cls-10, .cls-2, .cls-3 {
        fill: none;
      }

      .cls-1 {
        stroke: #f15922;
      }

      .cls-1, .cls-10, .cls-2, .cls-3, .cls-7, .cls-8, .cls-9 {
        stroke-miterlimit: 10;
      }

      .cls-1, .cls-10, .cls-7 {
        stroke-width: 3px;
      }

      .cls-2, .cls-3 {
        stroke: #d74546;
      }

      .cls-2, .cls-8 {
        stroke-width: 2px;
      }

      .cls-4 {
        font-size: 82px;
        fill: #2c373e;
        font-family: CenturyGothic, Century Gothic;
        letter-spacing: 0.01em;
      }

      .cls-5, .cls-8 {
        fill: #f15922;
      }

      .cls-6 {
        fill: #fff;
      }

      .cls-10, .cls-7, .cls-8 {
        stroke: #fff;
      }

      .cls-7 {
        fill: url(#linear-gradient);
      }

      .cls-9 {
        fill: #d74546;
        stroke: #f2f3f6;
      }
    </style>
    <linearGradient id="linear-gradient" x1="254.062" y1="66.80053" x2="331.78735" y2="128.11428" gradientUnits="userSpaceOnUse">
      <stop offset="0" stop-color="#f15922"/>
      <stop offset="1" stop-color="#d74546"/>
    </linearGradient>
  </defs>
  <line class="cls-1" x1="184.77238" y1="16.74468" x2="145.7357" y2="81.18496"/>
  <line class="cls-1" x1="267.93672" y1="77.26082" x2="187.51118" y2="12.24522"/>
  <line class="cls-2" x1="394.67962" y1="179.7234" x2="313.82595" y2="114.3617"/>
  <path class="cls-3" d="M401.58037,178.62456c16.65229-42.21722,58.919-72.21018,108.43561-72.21018,64.09472,0,116.03776,50.24058,116.03776,112.21341a109.01877,109.01877,0,0,1-1.87852,20.19085" transform="translate(-1)"/>
  <text class="cls-4" transform="translate(202.97865 241.04249)">SubLinked</text>
  <circle class="cls-5" cx="99.37261" cy="143.71249" r="99.37261"/>
  <circle class="cls-6" cx="99.37246" cy="143.71261" r="89.37256"/>
  <circle class="cls-7" cx="292.83033" cy="97.38298" r="39.0431"/>
  <circle class="cls-8" cx="187.51118" cy="12.23404" r="11.23404"/>
  <circle class="cls-9" cx="399.14948" cy="183.53191" r="7"/>
  <circle class="cls-9" cx="624.87289" cy="236.08511" r="7"/>
  <line class="cls-10" x1="316.34403" y1="67.41389" x2="269.50813" y2="127.16057"/>
  <g>
    <path class="cls-5" d="M141.07832,151.56126a18.50613,18.50613,0,1,1,18.50612-18.50613,18.53944,18.53944,0,0,1-18.50612,18.50613" transform="translate(-1)"/>
    <path class="cls-5" d="M144.34655,181.93232c-12.645,12.60886-36.83529,13.60378-43.93873,13.60378s-31.32805-.99492-43.93872-13.60378a4.79817,4.79817,0,0,1,6.78564-6.78564c7.9557,7.9575,24.97035,10.7996,37.15308,10.7996,12.14843,0,29.19739-2.8421,37.1549-10.7996a4.78215,4.78215,0,0,1,6.78383,0,4.84722,4.84722,0,0,1,0,6.78564" transform="translate(-1)"/>
    <path class="cls-5" d="M41.16078,133.05694a18.50613,18.50613,0,1,1,18.50613,18.50612,18.53944,18.53944,0,0,1-18.50613-18.50612" transform="translate(-1)"/>
  </g>
</svg>
