<svg xmlns="http://www.w3.org/2000/svg" xmlns:xlink="http://www.w3.org/1999/xlink" viewBox="0 0 261 261"><defs><style>.cls-1{fill:#2c373e;stroke:#231f20;}.cls-1,.cls-2,.cls-3,.cls-4,.cls-7,.cls-8,.cls-9{stroke-miterlimit:10;}.cls-2,.cls-4,.cls-9{fill:none;}.cls-2{stroke:#d74546;}.cls-2,.cls-7{stroke-width:2px;}.cls-3{fill:#d74546;stroke:#f2f3f6;}.cls-4{stroke:#f15922;}.cls-4,.cls-8,.cls-9{stroke-width:3px;}.cls-5,.cls-7{fill:#f15922;}.cls-6{fill:#fff;}.cls-7,.cls-8,.cls-9{stroke:#fff;}.cls-8{fill:url(#linear-gradient);}</style><linearGradient id="linear-gradient" x1="74.65133" y1="123.21422" x2="152.37668" y2="184.52796" gradientUnits="userSpaceOnUse"><stop offset="0" stop-color="#f15922"/><stop offset="1" stop-color="#d74546"/></linearGradient></defs><g id="Layer_2" data-name="Layer 2"><rect class="cls-1" x="0.5" y="0.5" width="260" height="260"/></g><g id="Layer_1" data-name="Layer 1"><path class="cls-2" d="M206.90387,257.31437a137.1717,137.1717,0,0,0,9.87-9.87,139.8098,139.8098,0,0,0,36.35-94.15c0-77.4-62.97-140.37-140.38-140.37a140.53752,140.53752,0,0,0-104.02,46.22" transform="translate(0.5 0.5)"/><circle class="cls-3" cx="212.62136" cy="253.16916" r="7"/><circle class="cls-3" cx="212.62136" cy="54.42357" r="7"/><line class="cls-4" x1="113.59051" y1="26.75351" x2="113.24911" y2="102.0947"/><circle class="cls-5" cx="113.24875" cy="153.79655" r="99.37261"/><circle class="cls-6" cx="113.41966" cy="153.79667" r="89.37256"/><circle class="cls-7" cx="113.41966" cy="12.56488" r="11.23404"/><circle class="cls-8" cx="113.41966" cy="153.79667" r="39.0431"/><line class="cls-9" x1="136.93335" y1="123.82758" x2="90.09745" y2="183.57426"/><circle class="cls-3" cx="13.87613" cy="54.42397" r="7"/></g></svg>