<svg id="Layer_1" data-name="Layer 1" xmlns="http://www.w3.org/2000/svg" xmlns:xlink="http://www.w3.org/1999/xlink" viewBox="0 0 248.24773 260.33832"><defs><style>.cls-1,.cls-3,.cls-8{fill:none;}.cls-1{stroke:#d74546;}.cls-1,.cls-2,.cls-3,.cls-6,.cls-7,.cls-8{stroke-miterlimit:10;}.cls-1,.cls-6{stroke-width:2px;}.cls-2{fill:#d74546;stroke:#f2f3f6;}.cls-3{stroke:#f15922;}.cls-3,.cls-7,.cls-8{stroke-width:3px;}.cls-4,.cls-6{fill:#f15922;}.cls-5{fill:#fff;}.cls-6,.cls-7,.cls-8{stroke:#fff;}.cls-7{fill:url(#linear-gradient);}</style><linearGradient id="linear-gradient" x1="68.2752" y1="122.88338" x2="146.00054" y2="184.19712" gradientUnits="userSpaceOnUse"><stop offset="0" stop-color="#f15922"/><stop offset="1" stop-color="#d74546"/></linearGradient></defs><path class="cls-1" d="M206.90387,257.31437a137.1717,137.1717,0,0,0,9.87-9.87,139.8098,139.8098,0,0,0,36.35-94.15c0-77.4-62.97-140.37-140.38-140.37a140.53752,140.53752,0,0,0-104.02,46.22" transform="translate(-5.87613 0.16916)"/><circle class="cls-2" cx="206.24523" cy="252.83832" r="7"/><circle class="cls-2" cx="206.24523" cy="54.09273" r="7"/><line class="cls-3" x1="107.21438" y1="26.42267" x2="106.87297" y2="101.76386"/><circle class="cls-4" cx="106.87261" cy="153.46571" r="99.37261"/><circle class="cls-5" cx="107.04352" cy="153.46583" r="89.37256"/><circle class="cls-6" cx="107.04352" cy="12.23404" r="11.23404"/><circle class="cls-7" cx="107.04352" cy="153.46583" r="39.0431"/><line class="cls-8" x1="130.55722" y1="123.49674" x2="83.72132" y2="183.24342"/><circle class="cls-2" cx="7.5" cy="54.09313" r="7"/></svg>